<?xml version="1.0" encoding="UTF-8"?>
<svg width="20px" height="24px" viewBox="0 0 20 24" version="1.1" xmlns="http://www.w3.org/2000/svg" xmlns:xlink="http://www.w3.org/1999/xlink">
    <!-- Generator: Sketch 52 (66869) - http://www.bohemiancoding.com/sketch -->
    <title>android</title>
    <desc>Created with Sketch.</desc>
    <g id="Page-1" stroke="none" stroke-width="1" fill="none" fill-rule="evenodd">
        <g id="页面"></g>
        <g id="慢病管理" transform="translate(-117.000000, -490.000000)" fill="#FFFFFF" fill-rule="nonzero">
            <path d="M135.576052,497.291706 C134.799353,497.291706 134.152104,497.938955 134.152104,498.715654 L134.152104,504.346722 C134.152104,505.123421 134.799353,505.77067 135.576052,505.77067 C136.352751,505.77067 137,505.123421 137,504.346722 L137,498.780379 C137,497.938955 136.417476,497.291706 135.576052,497.291706 Z M118.423948,497.291706 C117.647249,497.291706 117,497.938955 117,498.715654 L117,504.346722 C117,505.123421 117.647249,505.77067 118.423948,505.77067 C119.200647,505.77067 119.847896,505.123421 119.847896,504.346722 L119.847896,498.780379 C119.847896,497.938955 119.200647,497.291706 118.423948,497.291706 Z M120.68932,497.356431 L120.68932,507.647693 C120.68932,508.230217 121.20712,508.748016 121.789644,508.748016 L123.084142,508.748016 L123.084142,511.854813 C123.084142,512.631512 123.731392,513.278761 124.508091,513.278761 C125.28479,513.278761 125.932039,512.631512 125.932039,511.854813 L125.932039,508.748016 L128.132686,508.748016 L128.132686,511.854813 C128.132686,512.631512 128.779935,513.278761 129.556634,513.278761 C130.333333,513.278761 130.980583,512.631512 130.980583,511.854813 L130.980583,508.748016 L132.275081,508.748016 C132.857605,508.748016 133.375405,508.230217 133.375405,507.647693 L133.375405,497.356431 L120.68932,497.356431 Z M130.009709,492.048987 L131.174757,490.366139 C131.239482,490.23669 131.239482,490.10724 131.110032,490.042515 C131.045307,489.97779 130.915858,490.042515 130.851133,490.10724 L129.621359,491.854813 C128.84466,491.531188 127.938511,491.337013 126.967638,491.337013 C125.996764,491.337013 125.15534,491.531188 124.313916,491.854813 L123.084142,490.10724 C123.019417,489.97779 122.889968,489.97779 122.825243,490.042515 C122.760518,490.10724 122.695793,490.23669 122.760518,490.366139 L123.925566,492.048987 C122.048544,492.890411 120.754045,494.573259 120.559871,496.450282 L133.245955,496.450282 C133.18123,494.508534 131.886731,492.890411 130.009709,492.048987 Z M124.313916,494.702709 C123.925566,494.702709 123.601942,494.379084 123.601942,493.990735 C123.601942,493.602385 123.925566,493.278761 124.313916,493.278761 C124.702265,493.278761 125.02589,493.602385 125.02589,493.990735 C125.02589,494.379084 124.702265,494.702709 124.313916,494.702709 Z M129.750809,494.702709 C129.36246,494.702709 129.038835,494.379084 129.038835,493.990735 C129.038835,493.602385 129.36246,493.278761 129.750809,493.278761 C130.139159,493.278761 130.462783,493.602385 130.462783,493.990735 C130.462783,494.379084 130.139159,494.702709 129.750809,494.702709 Z" id="android"></path>
        </g>
    </g>
</svg>