<?xml version="1.0" encoding="UTF-8"?>
<svg width="20px" height="25px" viewBox="0 0 20 25" version="1.1" xmlns="http://www.w3.org/2000/svg" xmlns:xlink="http://www.w3.org/1999/xlink">
    <!-- Generator: Sketch 52 (66869) - http://www.bohemiancoding.com/sketch -->
    <title>iPhone</title>
    <desc>Created with Sketch.</desc>
    <g id="Page-1" stroke="none" stroke-width="1" fill="none" fill-rule="evenodd">
        <g id="页面"></g>
        <g id="慢病管理" transform="translate(-117.000000, -557.000000)" fill="#FFFFFF" fill-rule="nonzero">
            <path d="M134.718401,572.873724 C135.381867,573.812227 136.142319,574.418997 137,574.694034 C136.627977,575.842915 136.037371,577.04029 135.228184,578.286159 C133.982316,580.163164 132.75237,581.101667 131.538831,581.101667 C131.085744,581.101667 130.414316,580.947984 129.524307,580.640619 C128.699197,580.333012 127.979034,580.179329 127.364062,580.179329 C126.749331,580.179329 126.0697,580.341214 125.325171,580.664745 C124.548554,580.972352 123.909455,581.126034 123.407875,581.126034 C121.951627,581.126034 120.519506,579.888128 119.111752,577.412314 C117.703998,574.96907 117,572.566117 117,570.203696 C117,568.019325 117.533909,566.231345 118.601969,564.839755 C119.702357,563.448165 121.061377,562.75237 122.67951,562.75237 C123.03561,562.75237 123.432001,562.796762 123.868923,562.885787 C124.305846,562.974812 124.758933,563.140558 125.228184,563.383266 C125.730006,563.658303 126.142561,563.848657 126.466091,563.953606 C126.789621,564.058795 127.040532,564.11139 127.218582,564.11139 C127.428961,564.11139 127.752491,564.062655 128.189413,563.965669 C128.626336,563.868441 129.063017,563.690632 129.49994,563.43176 C129.969191,563.172887 130.373785,562.978673 130.713479,562.849116 C131.053174,562.7198 131.401071,562.654901 131.757171,562.654901 C132.889889,562.654901 133.909214,562.962267 134.815388,563.57724 C135.300803,563.90077 135.794181,564.378224 136.296002,565.009361 C135.551473,565.656662 135.009602,566.2229 134.669666,566.708316 C134.038529,567.61449 133.722961,568.601486 133.722961,569.669304 C133.723202,570.850998 134.054935,571.919057 134.718401,572.873724 Z M129.839634,561.538831 C129.273396,562.07274 128.755652,562.420637 128.2864,562.582523 C128.124514,562.631258 127.918237,562.67565 127.667326,562.716181 C127.416415,562.756472 127.129316,562.793143 126.805785,562.825472 C126.82195,561.401554 127.193973,560.17185 127.922338,559.136119 C128.650462,558.100388 129.847837,557.388429 131.514464,557 C131.546792,557.161886 131.57116,557.275037 131.587324,557.339695 L131.587324,557.60677 C131.587324,558.189172 131.449806,558.844677 131.174769,559.5728 C130.883568,560.28476 130.438442,560.940264 129.839634,561.538831 Z" id="iPhone"></path>
        </g>
    </g>
</svg>